<svg width="96" height="96" viewBox="0 0 96 96" fill="none" xmlns="http://www.w3.org/2000/svg">
<path d="M0 5.56522C0 2.49163 2.49163 0 5.56522 0H90.4348C93.5084 0 96 2.49163 96 5.56522V90.4348C96 93.5084 93.5084 96 90.4348 96H5.56522C2.49163 96 0 93.5084 0 90.4348V5.56522Z" fill="#463FE1"/>
<path d="M68.5153 85.1389C70.6324 86.036 73.0007 86.4845 75.6201 86.4845C78.3831 86.4845 80.7693 85.9822 82.7788 84.9774C84.7882 83.9368 86.3132 82.5553 87.3539 80.8329C88.3945 79.1106 88.9148 77.2446 88.9148 75.2352C88.9148 72.9028 88.3586 71.0189 87.2462 69.5836C86.1338 68.1483 84.8062 67.0718 83.2632 66.3542C81.7202 65.6365 79.7287 64.9188 77.2887 64.2012C75.4945 63.6629 74.0951 63.1964 73.0904 62.8017C72.1215 62.3711 71.2962 61.8329 70.6144 61.187C69.9685 60.5052 69.6456 59.662 69.6456 58.6572C69.6456 57.2219 70.0762 56.1275 70.9374 55.374C71.8345 54.6204 73.0186 54.2436 74.4898 54.2436C76.1763 54.2436 77.5219 54.6742 78.5266 55.5354C79.5672 56.3607 80.1234 57.4193 80.1952 58.7111H88.4842C88.233 55.3381 86.8874 52.7186 84.4473 50.8527C82.0432 48.9509 78.9034 48 75.0281 48C72.4445 48 70.148 48.4485 68.1385 49.3456C66.1291 50.2068 64.5682 51.4627 63.4558 53.1133C62.3434 54.7639 61.7872 56.7016 61.7872 58.9264C61.7872 61.2947 62.3255 63.1964 63.402 64.6318C64.5143 66.0312 65.8241 67.0898 67.3311 67.8074C68.8741 68.4892 70.8656 69.1889 73.3057 69.9066C75.0998 70.4089 76.4993 70.8754 77.504 71.306C78.5446 71.7007 79.4058 72.2569 80.0876 72.9746C80.7693 73.6922 81.1102 74.6072 81.1102 75.7196C81.1102 77.0832 80.6079 78.1955 79.6031 79.0567C78.5984 79.882 77.2169 80.2947 75.4586 80.2947C73.7363 80.2947 72.3727 79.8462 71.368 78.9491C70.3991 78.052 69.8609 76.832 69.7532 75.289H61.6796C61.7155 77.5855 62.3434 79.577 63.5634 81.2635C64.7835 82.95 66.4341 84.2418 68.5153 85.1389Z" fill="white"/>
<path fill-rule="evenodd" clip-rule="evenodd" d="M29.7175 86.1077L32.1934 78.9491H47.1566L49.6325 86.1077H57.5985L44.0886 48.4844H35.3152L21.8053 86.1077H29.7175ZM39.675 57.204L45.1113 72.9208H34.2387L39.675 57.204Z" fill="white"/>
</svg>
